# xmcd
# 
# Track frame offsets:
#     150
#     6550
#     83527
#     135342
#     181755
# 
# Disc length: 2511
# 
# Revision: 44
# Processed by: cddbd v1.5.2PL0 Copyright (c) Steve Scherf et al.
# Submitted via: BonkEnc v1.0.8
# 
DISCID=2f09cd05
DTITLE=Pink Floyd - Animals
DYEAR=1977
DGENRE=Progressive Rock
TTITLE0=Pigs On The Wing (Part One)
TTITLE1=Dogs
TTITLE2=Pigs (Three Different Ones)
TTITLE3=Sheep
TTITLE4=Pigs On The Wing (Part Two)
EXTD=YEAR: 1977 ID3G: 92
EXTT0=
EXTT1=
EXTT2=
EXTT3=
EXTT4=
PLAYORDER=
